<svg width="128" height="128" viewBox="0 0 128 128" xmlns="http://www.w3.org/2000/svg" role="img" aria-label="weatherFlow simple cloud icon">
  <defs>
    <linearGradient id="bg" x1="0%" y1="0%" x2="0%" y2="100%">
      <stop offset="0%" stop-color="#23273d" />
      <stop offset="100%" stop-color="#0d101c" />
    </linearGradient>
    <linearGradient id="cloud" x1="0%" y1="0%" x2="100%" y2="100%">
      <stop offset="0%" stop-color="#ffffff" />
      <stop offset="100%" stop-color="#d9e4ff" />
    </linearGradient>
  </defs>
  <rect width="128" height="128" rx="32" fill="url(#bg)" />
  <path d="M38 78c0-11 9-20 20-20 5 0 9.5 1.6 13.2 4.4C75 56 84.6 48 95.8 48 110 48 121.5 59.5 121.5 73.7c0 0.2 0 0.5 0 0.7 7.7 1.5 13.5 8.2 13.5 16.3C135 99.2 126.2 108 115 108H49c-15.2 0-27.5-12.3-27.5-27.5 0-0.9 0-1.7 0.1-2.5C21.6 78 38 78 38 78z" fill="url(#cloud)" />
</svg>
